<?xml version="1.0"?>
<svg xmlns:rdf="http://www.w3.org/1999/02/22-rdf-syntax-ns#" xmlns="http://www.w3.org/2000/svg" xmlns:cc="http://web.resource.org/cc/" xmlns:dc="http://purl.org/dc/elements/1.1/" xmlns:svg="http://www.w3.org/2000/svg" id="svg2" viewBox="0 0 133.12 164.17" version="1.0">
  <g id="layer1" transform="translate(-392.56 -436.41)">
    <flowRoot id="flowRoot3217" xml:space="preserve" style="text-anchor:middle;text-align:center" font-size="64px">
      <flowRegion id="flowRegion3219">
        <rect id="rect3221" y="453.93" width="122.5" x="397.57" height="22.801"/>
      </flowRegion>
      <flowPara id="flowPara3223" font-size="64px" font-family="Arial">SPEED</flowPara>
    </flowRoot>
    <g id="g2177">
      <rect id="rect3134" rx="7" height="163.59" width="132.54" stroke="#000" y="436.7" x="392.85" stroke-width=".58024" fill="#fff"/>
      <rect id="rect3205" rx="4.608" height="156.63" width="125.11" stroke="#000" y="439.9" x="396.58" stroke-width="2.3449" fill="#fff"/>
      <path id="flowRoot3225" d="m399.75 476.77l3.22-0.28c0.15 1.29 0.5 2.35 1.06 3.17 0.56 0.83 1.42 1.5 2.59 2.01s2.49 0.76 3.96 0.76c1.3 0 2.45-0.19 3.44-0.58 1-0.39 1.74-0.92 2.23-1.59 0.48-0.67 0.73-1.41 0.73-2.21 0-0.81-0.24-1.51-0.71-2.11-0.47-0.61-1.24-1.12-2.32-1.53-0.69-0.26-2.22-0.68-4.58-1.25-2.37-0.57-4.03-1.11-4.98-1.61-1.23-0.65-2.15-1.44-2.75-2.4s-0.91-2.02-0.91-3.21c0-1.3 0.37-2.51 1.11-3.65 0.74-1.13 1.82-1.98 3.24-2.57 1.41-0.59 2.99-0.88 4.72-0.88 1.91 0 3.6 0.31 5.06 0.92 1.46 0.62 2.58 1.52 3.36 2.72 0.79 1.19 1.21 2.55 1.27 4.06l-3.27 0.25c-0.18-1.63-0.77-2.86-1.78-3.7-1.02-0.83-2.51-1.24-4.49-1.24-2.07 0-3.57 0.37-4.51 1.13-0.95 0.76-1.42 1.67-1.42 2.73 0 0.93 0.34 1.69 1 2.29s2.37 1.21 5.15 1.84c2.77 0.62 4.67 1.17 5.7 1.64 1.5 0.69 2.61 1.57 3.32 2.63 0.72 1.06 1.07 2.28 1.07 3.66 0 1.37-0.39 2.67-1.17 3.88-0.79 1.21-1.92 2.15-3.39 2.83-1.47 0.67-3.12 1.01-4.96 1.01-2.34 0-4.29-0.34-5.87-1.02-1.57-0.68-2.81-1.7-3.7-3.07-0.9-1.36-1.37-2.91-1.42-4.63zm25.21 8.28v-25.77h9.72c1.71 0 3.02 0.08 3.92 0.25 1.26 0.21 2.32 0.61 3.18 1.2 0.85 0.59 1.54 1.42 2.06 2.49 0.53 1.06 0.79 2.24 0.79 3.51 0 2.19-0.7 4.05-2.09 5.57-1.4 1.51-3.92 2.27-7.56 2.27h-6.61v10.48h-3.41zm3.41-13.52h6.66c2.2 0 3.77-0.41 4.69-1.23 0.93-0.82 1.39-1.97 1.39-3.46 0-1.08-0.27-2-0.82-2.77-0.54-0.77-1.26-1.27-2.15-1.52-0.57-0.15-1.63-0.23-3.18-0.23h-6.59v9.21zm20.7 13.52v-25.77h18.64v3.04h-15.23v7.89h14.26v3.03h-14.26v8.77h15.82v3.04h-19.23zm24.05 0v-25.77h18.63v3.04h-15.22v7.89h14.26v3.03h-14.26v8.77h15.82v3.04h-19.23zm23.98 0v-25.77h8.87c2.01 0 3.54 0.12 4.59 0.37 1.48 0.34 2.74 0.95 3.78 1.84 1.36 1.15 2.38 2.62 3.05 4.41 0.68 1.79 1.01 3.83 1.01 6.12 0 1.96-0.23 3.7-0.68 5.21-0.46 1.51-1.05 2.76-1.76 3.75-0.72 0.99-1.5 1.77-2.35 2.34s-1.87 1-3.07 1.29c-1.21 0.29-2.58 0.44-4.14 0.44h-9.3zm3.41-3.04h5.5c1.7 0 3.03-0.16 4-0.48 0.97-0.31 1.74-0.76 2.31-1.33 0.81-0.81 1.44-1.9 1.89-3.26 0.45-1.37 0.68-3.02 0.68-4.97 0-2.69-0.45-4.77-1.33-6.21-0.89-1.45-1.96-2.42-3.23-2.91-0.91-0.35-2.38-0.53-4.41-0.53h-5.41v19.69z" transform="matrix(.91032 0 0 .86054 41.229 59.35)"/>
      <path id="flowRoot3233" d="m415.85 485.05v-25.77h3.41v22.73h12.69v3.04h-16.1zm20.76 0v-25.77h3.41v25.77h-3.41zm9.3 0v-25.77h5.13l6.1 18.25c0.57 1.7 0.98 2.97 1.23 3.81 0.3-0.94 0.75-2.31 1.37-4.13l6.17-17.93h4.59v25.77h-3.29v-21.57l-7.48 21.57h-3.08l-7.45-21.94v21.94h-3.29zm30.71 0v-25.77h3.41v25.77h-3.41zm15.96 0v-22.73h-8.49v-3.04h20.43v3.04h-8.53v22.73h-3.41z" transform="matrix(1.0226 0 0 .89943 -11.456 77.295)"/>
    </g>
    <path id="flowRoot3241" d="m450.41 485.05v-5.19h-10.55v-4.32l11.18-16.37h4.15v16.35h3.2v4.34h-3.2v5.19h-4.78zm0-9.53v-8.8l-5.92 8.8h5.92zm10.42 2.9l4.93-0.51c0.14 1.12 0.55 2 1.24 2.65 0.7 0.65 1.49 0.97 2.39 0.97 1.04 0 1.91-0.42 2.62-1.25 0.72-0.84 1.08-2.1 1.08-3.79 0-1.58-0.36-2.77-1.07-3.56s-1.63-1.19-2.77-1.19c-1.41 0-2.69 0.63-3.81 1.88l-4.01-0.58 2.53-13.41h13.06v4.62h-9.31l-0.78 4.38c1.11-0.55 2.23-0.82 3.38-0.82 2.19 0 4.05 0.79 5.57 2.39 1.52 1.59 2.29 3.66 2.29 6.2 0 2.12-0.62 4.01-1.85 5.68-1.68 2.27-4 3.41-6.98 3.41-2.38 0-4.32-0.64-5.82-1.92-1.5-1.27-2.39-2.99-2.69-5.15z" transform="matrix(2.9109 0 0 2.3145 -877 -537.66)"/>
  </g>
  <metadata>
    <rdf:RDF>
      <cc:Work>
        <dc:format>image/svg+xml</dc:format>
        <dc:type rdf:resource="http://purl.org/dc/dcmitype/StillImage"/>
        <cc:license rdf:resource="http://creativecommons.org/licenses/publicdomain/"/>
        <dc:publisher>
          <cc:Agent rdf:about="http://openclipart.org/">
            <dc:title>Openclipart</dc:title>
          </cc:Agent>
        </dc:publisher>
        <dc:title>CA speed limit 45 roadsign</dc:title>
        <dc:date>2007-11-01T08:24:04</dc:date>
        <dc:description>clip art, clipart, image, media, public domain, roadsign, roadsign, sign, sign, svg, </dc:description>
        <dc:source>http://openclipart.org/detail/7881/ca-speed-limit-45-roadsign-by-paulprogrammer</dc:source>
        <dc:creator>
          <cc:Agent>
            <dc:title>paulprogrammer</dc:title>
          </cc:Agent>
        </dc:creator>
        <dc:subject>
          <rdf:Bag>
            <rdf:li>clip art</rdf:li>
            <rdf:li>clipart</rdf:li>
            <rdf:li>image</rdf:li>
            <rdf:li>media</rdf:li>
            <rdf:li>public domain</rdf:li>
            <rdf:li>roadsign</rdf:li>
            <rdf:li>sign</rdf:li>
            <rdf:li>svg</rdf:li>
          </rdf:Bag>
        </dc:subject>
      </cc:Work>
      <cc:License rdf:about="http://creativecommons.org/licenses/publicdomain/">
        <cc:permits rdf:resource="http://creativecommons.org/ns#Reproduction"/>
        <cc:permits rdf:resource="http://creativecommons.org/ns#Distribution"/>
        <cc:permits rdf:resource="http://creativecommons.org/ns#DerivativeWorks"/>
      </cc:License>
    </rdf:RDF>
  </metadata>
</svg>
