<?xml version="1.0"?>
<svg xmlns:rdf="http://www.w3.org/1999/02/22-rdf-syntax-ns#" xmlns="http://www.w3.org/2000/svg" xmlns:cc="http://web.resource.org/cc/" xmlns:dc="http://purl.org/dc/elements/1.1/" xmlns:svg="http://www.w3.org/2000/svg" id="svg14350" viewBox="0 0 150.26 150.26" version="1.0">
  <g id="layer1" transform="translate(-274.87 -457.23)">
    <g id="g9098" transform="translate(-223.89 293.81)">
      <rect id="rect3049" transform="rotate(45)" ry="5.266" height="106.68" width="106.68" stroke="#000" y="-290.46" x="521.15" stroke-width="3.7488" fill="#ff0"/>
      <g id="g3280" transform="matrix(.77587 0 0 .77587 154.02 -229.24)">
        <path id="path3282" fill="#0d0802" d="m482.54 604.52c0-14.85 0.25-27 0.55-27s8.07 3.43 17.25 7.63c26.2 11.98 25.44 11.68 24.22 9.41-1.52-2.85-1.24-6.13 0.73-8.46 1.74-2.07 1.74-2.07-0.44-0.23-1.72 1.45-2.8 1.65-4.94 0.94-1.51-0.5-2.93-1.47-3.16-2.14-0.6-1.82 6.28-7.88 9.83-8.66 1.7-0.37 4.97-1.76 7.27-3.07 5.96-3.41 9.62-3.06 20.22 1.97 9.76 4.62 9.84 4.71 10.96 12.95l0.66 4.84 6.86 3.03c3.78 1.67 7.06 3.54 7.3 4.16 0.23 0.62-0.48 3.49-1.58 6.38-2.32 6.09-4.73 7.01-4.73 1.81 0-1.9-0.34-3.65-0.75-3.91s-0.75 1.41-0.75 3.69c0 3.63-0.39 4.35-3.03 5.67l-3.03 1.52 18.03 8.23 18.03 8.22-59.75 0.01-59.75 0.01v-27zm78.18 4.08c-0.32-3.32 0.02-4.17 2.21-5.61 1.71-1.11 3.53-1.47 5.35-1.05 2.05 0.47 2.37 0.38 1.26-0.38-2.38-1.61-5.51-1.21-8.4 1.06l-2.67 2.1-10.94-4.85c-10.81-4.8-10.93-4.89-10.96-8.27-0.03-3.22-2.31-7.08-4.19-7.08-0.46 0 0.06 0.9 1.16 2 4 4 1.64 10.33-3.86 10.33-1.73 0-3.02 0.12-2.88 0.26 0.4 0.4 33.17 15.31 33.77 15.36 0.29 0.03 0.35-1.71 0.15-3.87zm1.45-20.33c-0.33-1.24-0.61-3.18-0.62-4.32-0.01-1.37-1.2-2.63-3.54-3.75-4.71-2.24-5.02-2.17-6.48 1.35-1.47 3.54-1.83 3.04 4.51 6.3 6.2 3.19 6.89 3.24 6.13 0.42zm-12.73-7.9c1.4-4.01 1.54-3.58-1.65-5.2-5.78-2.94-7.08-2.94-9.79-0.01l-2.57 2.77 5.3 2.75c6.78 3.51 7.39 3.49 8.71-0.31z"/>
      </g>
    </g>
  </g>
  <metadata>
    <rdf:RDF>
      <cc:Work>
        <dc:format>image/svg+xml</dc:format>
        <dc:type rdf:resource="http://purl.org/dc/dcmitype/StillImage"/>
        <cc:license rdf:resource="http://creativecommons.org/licenses/publicdomain/"/>
        <dc:publisher>
          <cc:Agent rdf:about="http://openclipart.org/">
            <dc:title>Openclipart</dc:title>
          </cc:Agent>
        </dc:publisher>
        <dc:title>caution_steep hill down</dc:title>
        <dc:date>2007-10-19T23:39:24</dc:date>
        <dc:description>clip art, clipart, image, media, public domain, roadsign, roadsign, sign, sign, svg, traffic, traffic, </dc:description>
        <dc:source>http://openclipart.org/detail/7219/caution_steep-hill-down-by-leomarc</dc:source>
        <dc:creator>
          <cc:Agent>
            <dc:title>Leomarc</dc:title>
          </cc:Agent>
        </dc:creator>
        <dc:subject>
          <rdf:Bag>
            <rdf:li>clip art</rdf:li>
            <rdf:li>clipart</rdf:li>
            <rdf:li>image</rdf:li>
            <rdf:li>media</rdf:li>
            <rdf:li>public domain</rdf:li>
            <rdf:li>roadsign</rdf:li>
            <rdf:li>sign</rdf:li>
            <rdf:li>svg</rdf:li>
            <rdf:li>traffic</rdf:li>
          </rdf:Bag>
        </dc:subject>
      </cc:Work>
      <cc:License rdf:about="http://creativecommons.org/licenses/publicdomain/">
        <cc:permits rdf:resource="http://creativecommons.org/ns#Reproduction"/>
        <cc:permits rdf:resource="http://creativecommons.org/ns#Distribution"/>
        <cc:permits rdf:resource="http://creativecommons.org/ns#DerivativeWorks"/>
      </cc:License>
    </rdf:RDF>
  </metadata>
</svg>
