<?xml version="1.0"?>
<svg xmlns:rdf="http://www.w3.org/1999/02/22-rdf-syntax-ns#" xmlns="http://www.w3.org/2000/svg" xmlns:cc="http://web.resource.org/cc/" xmlns:dc="http://purl.org/dc/elements/1.1/" xmlns:svg="http://www.w3.org/2000/svg" id="svg14350" viewBox="0 0 150.26 150.26" version="1.0">
  <g id="layer1" transform="translate(-274.87 -457.23)">
    <g id="g3602" stroke="#000" transform="translate(-63.039 -191.48)">
      <rect id="rect7012" transform="rotate(45)" ry="5.266" height="106.68" width="106.68" y="166.43" x="750.56" stroke-width="3.7488" fill="#ff0"/>
      <path id="path5063" d="m411.59 676.69c-21.72-0.21-25.41 14.65-25.35 22.55 0 0.21 0.04 0.41 0.06 0.6h-0.06v8.68s-7.06-2.82-10.41-2.77c-3.36 0.05-3.01 3.01-3.01 3.01l21.1 31.57 20.95-30.16s1.45-5.21-1.62-4.53c-3.66 0.82-11.88 2.71-11.88 2.71v-8.3h-0.22c0.06-0.02 0.24-0.1 0.24-0.1s0.52-8.58 11.03-8.58c10.5 0 11.33 10.28 11.33 10.28v58.31h14.25v-61.46c0-1.8-4.7-21.6-26.41-21.81z" stroke-width=".74973px" fill-rule="evenodd"/>
    </g>
  </g>
  <metadata>
    <rdf:RDF>
      <cc:Work>
        <dc:format>image/svg+xml</dc:format>
        <dc:type rdf:resource="http://purl.org/dc/dcmitype/StillImage"/>
        <cc:license rdf:resource="http://creativecommons.org/licenses/publicdomain/"/>
        <dc:publisher>
          <cc:Agent rdf:about="http://openclipart.org/">
            <dc:title>Openclipart</dc:title>
          </cc:Agent>
        </dc:publisher>
        <dc:title>caution_u turn</dc:title>
        <dc:date>2007-10-20T00:02:43</dc:date>
        <dc:description>clip art, clipart, image, media, public domain, roadsign, roadsign, sign, sign, svg, traffic, traffic, </dc:description>
        <dc:source>http://openclipart.org/detail/7240/caution_u-turn-by-leomarc</dc:source>
        <dc:creator>
          <cc:Agent>
            <dc:title>Leomarc</dc:title>
          </cc:Agent>
        </dc:creator>
        <dc:subject>
          <rdf:Bag>
            <rdf:li>clip art</rdf:li>
            <rdf:li>clipart</rdf:li>
            <rdf:li>image</rdf:li>
            <rdf:li>media</rdf:li>
            <rdf:li>public domain</rdf:li>
            <rdf:li>roadsign</rdf:li>
            <rdf:li>sign</rdf:li>
            <rdf:li>svg</rdf:li>
            <rdf:li>traffic</rdf:li>
          </rdf:Bag>
        </dc:subject>
      </cc:Work>
      <cc:License rdf:about="http://creativecommons.org/licenses/publicdomain/">
        <cc:permits rdf:resource="http://creativecommons.org/ns#Reproduction"/>
        <cc:permits rdf:resource="http://creativecommons.org/ns#Distribution"/>
        <cc:permits rdf:resource="http://creativecommons.org/ns#DerivativeWorks"/>
      </cc:License>
    </rdf:RDF>
  </metadata>
</svg>
