<?xml version="1.0" encoding="UTF-8" standalone="no"?>
<!-- Generator: Adobe Illustrator 13.0.2, SVG Export Plug-In  -->
<svg id="svg2" xmlns:rdf="http://www.w3.org/1999/02/22-rdf-syntax-ns#" xmlns="http://www.w3.org/2000/svg" enable-background="new -0.307 -0.46 235 235" xml:space="preserve" height="235px" width="235px" version="1.1" y="0px" x="0px" xmlns:cc="http://creativecommons.org/ns#" xmlns:dc="http://purl.org/dc/elements/1.1/" viewBox="-0.307 -0.46 235 235"><metadata id="metadata253"><rdf:RDF><cc:Work rdf:about=""><dc:format>image/svg+xml</dc:format><dc:type rdf:resource="http://purl.org/dc/dcmitype/StillImage"/><dc:title/></cc:Work></rdf:RDF></metadata><g fill="#010101"><polyline id="polyline239" points="99.224 120.47 99.224 157.28 83.117 198.7 94.621 205.6 113.03 166.49 115.41 138.46"/><polygon id="polygon241" points="99.222 114.83 102.04 81.566 88.956 99.243 81.973 119.39 71.372 117.12 77.039 91.297 100.98 63.283 131.18 62.536 148.6 93.039 166.46 106.88 162.41 117 141.34 104.66 129.72 85.777 131.95 128.73 141.34 156.94 154.96 195.46 143.46 200.06 128.27 164.21 118.83 138.06"/><circle id="circle243" cy="40.098" cx="117.21" r="14.044"/></g><g fill="none"><circle id="circle245" r="107.04" cy="117.04" stroke="#42B649" cx="117.04" stroke-width="20"/><circle id="circle247" r="107.04" cy="117.04" stroke="#ED1C24" cx="117.04" stroke-width="20"/><line id="line249" y2="171.72" x1="23.621" x2="204.24" stroke="#ED1C24" y1="64.431" stroke-width="15"/></g></svg>
