<?xml version="1.0" encoding="UTF-8" standalone="no"?>
<svg
   xmlns:dc="http://purl.org/dc/elements/1.1/"
   xmlns:cc="http://creativecommons.org/ns#"
   xmlns:rdf="http://www.w3.org/1999/02/22-rdf-syntax-ns#"
   xmlns:svg="http://www.w3.org/2000/svg"
   xmlns="http://www.w3.org/2000/svg"
   xmlns:sodipodi="http://sodipodi.sourceforge.net/DTD/sodipodi-0.dtd"
   xmlns:inkscape="http://www.inkscape.org/namespaces/inkscape"
   width="63.837814"
   height="63.838123"
   viewBox="0 0 180.16448 180.16537"
   version="1.1"
   id="svg2"
   inkscape:version="0.48.2 r9819"
   sodipodi:docname="AJAX1.svg">
  <metadata
     id="metadata62">
    <rdf:RDF>
      <cc:Work
         rdf:about="">
        <dc:format>image/svg+xml</dc:format>
        <dc:type
           rdf:resource="http://purl.org/dc/dcmitype/StillImage" />
        <dc:title />
      </cc:Work>
    </rdf:RDF>
  </metadata>
  <defs
     id="defs60">
    <clipPath
       clipPathUnits="userSpaceOnUse"
       id="clipPath3564">
      <path
         inkscape:connector-curvature="0"
         d="m 63,43 512.622,0 0,313.129 L 63,356.129 63,43 z"
         id="path3566" />
    </clipPath>
  </defs>
  <sodipodi:namedview
     pagecolor="#ffffff"
     bordercolor="#666666"
     borderopacity="1"
     objecttolerance="10"
     gridtolerance="10"
     guidetolerance="10"
     inkscape:pageopacity="0"
     inkscape:pageshadow="2"
     inkscape:window-width="1280"
     inkscape:window-height="1004"
     id="namedview58"
     showgrid="false"
     fit-margin-top="0"
     fit-margin-left="0"
     fit-margin-right="0"
     fit-margin-bottom="0"
     inkscape:zoom="2.4413477"
     inkscape:cx="-7.9442313"
     inkscape:cy="38.163787"
     inkscape:window-x="-8"
     inkscape:window-y="-8"
     inkscape:window-maximized="1"
     inkscape:current-layer="svg2"
     showguides="true"
     inkscape:guide-bbox="true" />
  <polygon
     points="315,545 235,375 315,205 395,375 "
     id="polygon10"
     style="fill:none;stroke:#ffffff;stroke-width:40"
     transform="translate(18442.597,12443.142)" />
  <!-- draw the bicycle -->
  <!-- RIGHT -->
  <!-- LANE -->
  <!-- ONLY -->
  <path
     d="m 26.333969,26.33398 c 35.10492,-35.1119733 92.381921,-35.1119733 127.493891,0 35.1155,35.11197 35.1155,92.38192 0,127.49741 -35.11197,35.11198 -92.388971,35.11198 -127.493891,0 -35.1119706,-35.11549 -35.1119706,-92.38544 0,-127.49741"
     style="fill:#ffd033;fill-opacity:1;fill-rule:evenodd;stroke:none"
     id="path3435"
     inkscape:connector-curvature="0" />
  <path
     d="m 27.837169,27.84246 c 34.28295,-34.2794203 90.205281,-34.2794203 124.484701,0 34.27588,34.28294 34.27588,90.20174 0,124.48116 -34.27942,34.27942 -90.201751,34.27942 -124.484701,0 -34.2794106,-34.27942 -34.2794106,-90.19822 0,-124.48116"
     style="fill:#000000;fill-opacity:1;fill-rule:evenodd;stroke:none"
     id="path3443"
     inkscape:connector-curvature="0" />
  <path
     d="m 23.543499,36.19025 c -25.5481606,31.22084 -25.5481606,76.57042 0,107.78772 L 77.437359,90.08411 23.543499,36.19025 z"
     style="fill:#ffd033;fill-opacity:1;fill-rule:evenodd;stroke:none"
     id="path3447"
     inkscape:connector-curvature="0" />
  <path
     d="m 36.187059,23.546329 c 31.22436,-25.5481664 76.563361,-25.5481664 107.787721,0 L 90.073859,77.44372 36.187059,23.546329 z"
     style="fill:#ffd033;fill-opacity:1;fill-rule:evenodd;stroke:none"
     id="path3451"
     inkscape:connector-curvature="0" />
  <path
     d="m 143.97478,156.62362 c -31.22436,25.54463 -76.563361,25.54463 -107.787721,0 l 53.8868,-53.89739 53.900921,53.89739 z"
     style="fill:#ffd033;fill-opacity:1;fill-rule:evenodd;stroke:none"
     id="path3455"
     inkscape:connector-curvature="0" />
  <path
     d="m 156.61128,143.97865 c 25.55169,-31.22083 25.55169,-76.56689 0,-107.78772 l -53.89386,53.89386 53.89386,53.89386 z"
     style="fill:#ffd033;fill-opacity:1;fill-rule:evenodd;stroke:none"
     id="path3459"
     inkscape:connector-curvature="0" />
  <path
     d="m 44.357389,83.11602 c 0,2.63172 -2.00378,4.39208 -5.13997,4.39208 l -10.14942,0 0,-8.90411 10.14942,0 c 3.13619,0 5.13997,1.7533 5.13997,4.51203 m 7.15433,24.82497 -6.51933,-15.29645 c 3.63008,-2.00377 5.76086,-5.51391 5.76086,-9.52852 0,-4.01109 -2.13078,-7.5177 -5.51391,-9.40506 -1.88031,-1.12183 -3.51367,-1.50283 -6.14539,-1.50283 l -16.41828,0 0,35.73286 6.39233,0 0,-14.04761 9.52853,0 5.76086,14.04761 7.15433,0 z"
     style="fill:#000000;fill-opacity:1;fill-rule:evenodd;stroke:none"
     id="path3463"
     inkscape:connector-curvature="0" />
  <path
     d="m 154.91797,83.11602 c 0,2.63172 -2.00378,4.39208 -5.13997,4.39208 l -10.14942,0 0,-8.90411 10.14942,0 c 3.13619,0 5.13997,1.7533 5.13997,4.51203 m 7.15081,24.82497 -6.51581,-15.29645 c 3.63714,-2.00377 5.76086,-5.51391 5.76086,-9.52852 0,-4.01109 -2.12372,-7.5177 -5.52097,-9.40506 -1.87325,-1.12183 -3.49956,-1.50283 -6.13833,-1.50283 l -16.42534,0 0,35.73286 6.39939,0 0,-14.04761 9.52147,0 5.76792,14.04761 7.15081,0 z"
     style="fill:#000000;fill-opacity:1;fill-rule:evenodd;stroke:none"
     id="path3467"
     inkscape:connector-curvature="0" />
</svg>
