<?xml version="1.0" encoding="UTF-8" standalone="no"?>
<svg
   viewBox="0 0 600.99463 600.99463"
   height="600.99463"
   width="600.99463"
   xml:space="preserve"
   version="1.1"
   id="svg4136"
   sodipodi:docname="Recreate Free Zone.svg"
   inkscape:version="1.1 (c68e22c387, 2021-05-23)"
   xmlns:inkscape="http://www.inkscape.org/namespaces/inkscape"
   xmlns:sodipodi="http://sodipodi.sourceforge.net/DTD/sodipodi-0.dtd"
   xmlns="http://www.w3.org/2000/svg"
   xmlns:svg="http://www.w3.org/2000/svg"
   xmlns:rdf="http://www.w3.org/1999/02/22-rdf-syntax-ns#"
   xmlns:cc="http://creativecommons.org/ns#"
   xmlns:dc="http://purl.org/dc/elements/1.1/"><sodipodi:namedview
     id="namedview28"
     pagecolor="#ffffff"
     bordercolor="#666666"
     borderopacity="1.0"
     inkscape:pageshadow="2"
     inkscape:pageopacity="0.0"
     inkscape:pagecheckerboard="0"
     showgrid="false"
     inkscape:zoom="0.61181167"
     inkscape:cx="298.29441"
     inkscape:cy="370.21197"
     inkscape:window-width="1366"
     inkscape:window-height="705"
     inkscape:window-x="-8"
     inkscape:window-y="-8"
     inkscape:window-maximized="1"
     inkscape:current-layer="g4144" /><metadata
     id="metadata4142"><rdf:RDF><cc:Work
         rdf:about=""><dc:format>image/svg+xml</dc:format><dc:type
           rdf:resource="http://purl.org/dc/dcmitype/StillImage" /></cc:Work></rdf:RDF></metadata><defs
     id="defs4140" /><g
     transform="matrix(1.25,0,0,-1.25,0,600.99464)"
     id="g4144"><g
       id="g4146"><path
         id="path4148"
         style="fill:#ffffff;fill-opacity:1;fill-rule:nonzero;stroke:none"
         d="m 480.398,240.397 c 0,-132.551 -107.449,-240 -240,-240 -132.55,0 -240,107.449 -240,240 0,132.551 107.45,240 240,240 132.551,0 240,-107.449 240,-240 z" /><path
         id="path4150"
         style="fill:#000000;fill-opacity:1;fill-rule:nonzero;stroke:none"
         d="M 240.398,480.796 C 107.633,480.796 0,373.163 0,240.397 0,107.632 107.633,-0.001 240.398,-0.001 c 132.766,0 240.399,107.633 240.399,240.398 0,132.766 -107.633,240.399 -240.399,240.399 z m 0,-0.399 c 132.551,0 240,-107.449 240,-240 0,-132.551 -107.449,-240 -240,-240 -132.55,0 -240,107.449 -240,240 0,132.551 107.45,240 240,240 z" /><path
         id="path4172"
         style="fill:#009b4f;fill-opacity:1;fill-rule:nonzero;stroke:none"
         d="m 240.398,472.397 c -127.75,0 -232,-104.25 -232,-232 0,-127.746 104.25,-232 232,-232 127.747,0 232,104.254 232,232 0,127.75 -104.253,232 -232,232 z m 0,-64.562 c 87.141,0 158.18,-65.692 166.598,-150.52 l -333.195,0 c 8.418,84.828 79.457,150.52 166.597,150.52 z M 73.801,223.483 l 333.195,0 C 398.578,138.655 327.539,72.96 240.398,72.96 c -87.14,0 -158.179,65.695 -166.597,150.523 z" /></g><circle
       cx="194.22327"
       cy="-138.16373"
       style="fill:none;stroke:#000000;stroke-width:6.63711px"
       id="circle2"
       transform="scale(1,-1)"
       r="26.714411" /><circle
       cx="289.63187"
       cy="-138.66151"
       style="fill:none;stroke:#000000;stroke-width:6.63711px"
       id="circle4"
       transform="scale(1,-1)"
       r="26.714411" /><path
       style="fill:#000000;fill-rule:evenodd;stroke:none;stroke-width:0.165928"
       d="m 229.81224,203.46186 c -21.9965,-0.21439 -18.2661,2.27254 -30.10047,-35.76038 -9.64083,-30.38827 -8.59071,-27.07432 -8.64113,-29.20589 -0.0353,-1.656 1.30143,-2.96897 2.98122,-3.08136 3.49338,0.35323 2.02398,-0.37781 14.13549,37.23253 44.25502,-46.68478 27.65165,-39.1144 51.46808,-40.06248 31.30105,0.30014 33.84515,-1.62937 34.21676,2.95859 -0.0429,1.55791 -0.7718,2.48693 -22.25376,50.29607 l 2.05815,5.65992 7.0749,0.12863 -0.25727,5.91719 h -26.37006 c -2.32971,-3.18728 0.94332,-3.17299 12.73481,-5.78855 l -2.05815,-5.78856 -52.6115,-0.12863 c 3.5446,12.37749 1.54362,11.60569 17.49429,11.5771 z m -19.14316,-23.96714 51.48139,0.0913 -14.87849,-39.98022 z m 57.68836,-2.37325 -14.60465,-38.33721 31.94767,-0.0913 z"
       id="path6" /><path
       id="path7351"
       style="fill:#000000;fill-opacity:1;fill-rule:nonzero;stroke:none;stroke-width:0.527386"
       d="m 272.54534,380.50977 c 0,-6.52428 -5.29652,-11.81237 -11.82292,-11.81237 -6.53431,0 -11.82083,5.28809 -11.82083,11.81237 0,6.53484 5.28652,11.83138 11.82083,11.83138 6.5264,0 11.82292,-5.29654 11.82292,-11.83138 z m -27.0264,-116.41827 9.86,58.31936 c 0.10493,0.64288 0.1213,1.27944 0.0454,1.91389 l -3.26769,27.75156 -23.14695,-13.89925 c -4.79815,-2.87583 -11.02395,-1.32058 -13.90769,3.47757 l 37.16803,22.30843 c 7.00051,-3.56777 15.48985,-2.35479 21.20037,3.03035 l 19.74216,-6.33865 c 0.82221,-0.25947 1.52257,-0.84698 1.93867,-1.61327 l 11.17795,-20.76791 c -4.93001,-2.64697 -11.073,-0.80533 -13.72838,4.12256 l -5.08453,9.43493 -11.96902,3.85466 3.37422,-28.65603 c 0.0638,-0.5933 0.21833,-1.17237 0.43878,-1.73457 l 8.38491,-20.80062 19.22056,-8.29419 c 5.14834,-2.2166 7.51103,-8.18081 5.29443,-13.31227 l -31.66793,12.63669 c -0.83221,0.33383 -1.49144,0.96829 -1.84163,1.78414 l -11.27708,25.76122 -10.33941,-51.0098 c -1.08377,-5.35455 -6.22367,-8.88961 -11.61724,-7.9688 z m -40.23953,83.70612 c 0,-5.93941 -4.8145,-10.74548 -10.75603,-10.74548 -5.93942,0 -10.74548,4.80607 -10.74548,10.74548 0,5.94154 4.80606,10.75604 10.74548,10.75604 5.94153,0 10.75603,-4.8145 10.75603,-10.75604 z M 188.07925,319.85252 174.54654,308.625 c -2.99133,-2.4766 -7.37285,-2.28094 -10.12739,0.46515 l 23.84786,23.85629 c 4.97113,-2.10321 10.65688,-1.57424 15.15389,1.40074 l 15.90385,-3.52874 c 0.63656,-0.13817 1.17449,-0.56271 1.45875,-1.13123 l 8.14757,-16.28726 c -3.71437,-1.85798 -8.23617,-0.35809 -10.10259,3.3642 l -3.87892,7.38129 h -7.51946 l 6.45203,-25.80235 14.53633,-1.09221 c 3.92639,-0.30062 6.95675,-3.56777 6.95675,-7.5026 h -24.64473 c -0.71726,0 -1.39494,0.35811 -1.79259,0.95142 l -3.65848,5.49219 -7.5279,-2.15068 v -22.58476 c 0,-4.02554 -3.17064,-7.33384 -7.19565,-7.52158" /></g></svg>
