<?xml version="1.0"?>
<svg xmlns:rdf="http://www.w3.org/1999/02/22-rdf-syntax-ns#" xmlns="http://www.w3.org/2000/svg" xmlns:cc="http://web.resource.org/cc/" xmlns:dc="http://purl.org/dc/elements/1.1/" xmlns:svg="http://www.w3.org/2000/svg" id="svg14350" viewBox="0 0 87.636 158.95" version="1.0">
  <g id="layer1" transform="translate(-581.05 -8.019)">
    <rect id="rect2747" ry="7.4548" height="156.42" width="85.11" stroke="#000" y="9.2823" x="582.32" stroke-width="2.5267" fill="none"/>
    <path id="path2749" fill-rule="evenodd" fill="#f00" d="m605.95 147.51l-11.69 5.17 11.16 5.14s1.93 0.36 1.68-0.39c-0.3-0.9-1.01-2.66-1.01-2.66l20.19-0.06v-0.04c5.23-0.01 18.66-0.06 18.66-0.06s-1.06 1.73-1.04 2.55c0.02 0.83 1.12 0.73 1.12 0.73l11.67-5.17-11.16-5.13s-1.91-0.36-1.66 0.4c0.3 0.9 1 2.66 1 2.66l-20.2 0.04v0.06c-5.23 0.01-18.64 0.04-18.64 0.04s1.05-1.73 1.03-2.55c-0.02-0.83-1.11-0.73-1.11-0.73z"/>
    <path id="text2751" d="m611.72 63.03v-33.762h10.94c4.15 0 6.85 0.169 8.11 0.507 1.93 0.507 3.55 1.608 4.86 3.305 1.3 1.696 1.96 3.888 1.96 6.575 0 2.073-0.38 3.815-1.13 5.228-0.75 1.412-1.71 2.521-2.87 3.327s-2.34 1.34-3.53 1.601c-1.63 0.322-3.99 0.484-7.07 0.484h-4.45v12.735h-6.82zm6.82-28.05v9.58h3.73c2.69 0 4.48-0.176 5.39-0.53 0.91-0.353 1.62-0.905 2.13-1.658 0.51-0.752 0.77-1.627 0.77-2.625 0-1.228-0.36-2.242-1.08-3.04s-1.64-1.297-2.74-1.497c-0.81-0.153-2.45-0.23-4.91-0.23h-3.29z"/>
    <path id="path2755" fill="#f00" d="m623.72 19.189c-14.89 0-26.98 12.075-26.98 26.965 0 14.891 12.09 26.979 26.98 26.979s26.98-12.088 26.98-26.979c0-14.89-12.09-26.965-26.98-26.965zm0 3.929c12.72 0 23.05 10.317 23.05 23.036 0 5.755-2.12 11.02-5.62 15.061l-32.48-32.479c4.04-3.493 9.3-5.618 15.05-5.618zm-17.75 8.362l32.43 32.441c-3.99 3.296-9.11 5.282-14.68 5.282-12.72 0-23.03-10.33-23.03-23.049 0-5.577 1.98-10.688 5.28-14.674z"/>
  </g>
  <metadata>
    <rdf:RDF>
      <cc:Work>
        <dc:format>image/svg+xml</dc:format>
        <dc:type rdf:resource="http://purl.org/dc/dcmitype/StillImage"/>
        <cc:license rdf:resource="http://creativecommons.org/licenses/publicdomain/"/>
        <dc:publisher>
          <cc:Agent rdf:about="http://openclipart.org/">
            <dc:title>Openclipart</dc:title>
          </cc:Agent>
        </dc:publisher>
        <dc:title>sign_no parking zone</dc:title>
        <dc:date>2007-10-20T00:16:45</dc:date>
        <dc:description>clip art, clipart, image, media, public domain, roadsign, roadsign, sign, sign, svg, </dc:description>
        <dc:source>http://openclipart.org/detail/7255/sign_no-parking-zone-by-leomarc</dc:source>
        <dc:creator>
          <cc:Agent>
            <dc:title>Leomarc</dc:title>
          </cc:Agent>
        </dc:creator>
        <dc:subject>
          <rdf:Bag>
            <rdf:li>clip art</rdf:li>
            <rdf:li>clipart</rdf:li>
            <rdf:li>image</rdf:li>
            <rdf:li>media</rdf:li>
            <rdf:li>public domain</rdf:li>
            <rdf:li>roadsign</rdf:li>
            <rdf:li>sign</rdf:li>
            <rdf:li>svg</rdf:li>
          </rdf:Bag>
        </dc:subject>
      </cc:Work>
      <cc:License rdf:about="http://creativecommons.org/licenses/publicdomain/">
        <cc:permits rdf:resource="http://creativecommons.org/ns#Reproduction"/>
        <cc:permits rdf:resource="http://creativecommons.org/ns#Distribution"/>
        <cc:permits rdf:resource="http://creativecommons.org/ns#DerivativeWorks"/>
      </cc:License>
    </rdf:RDF>
  </metadata>
</svg>
