<?xml version="1.0"?>
<svg xmlns:rdf="http://www.w3.org/1999/02/22-rdf-syntax-ns#" xmlns="http://www.w3.org/2000/svg" xmlns:cc="http://web.resource.org/cc/" xmlns:dc="http://purl.org/dc/elements/1.1/" xmlns:svg="http://www.w3.org/2000/svg" id="svg14350" viewBox="0 0 87.636 158.95" version="1.0">
  <g id="layer1" transform="translate(-581.05 -8.019)">
    <path id="rect7200" d="m589.77 9.2823h70.2c4.13 0 7.46 3.3247 7.46 7.4547v141.51c0 4.13-3.33 7.45-7.46 7.45h-70.2c-4.13 0-7.45-3.32-7.45-7.45v-141.51c0-4.133 3.32-7.4577 7.45-7.4577z" stroke="#000" stroke-width="2.5267" fill="none"/>
    <g id="g9140" fill="#00f" transform="matrix(.43337 0 0 .39559 230.24 -178.9)">
      <path id="path9144" fill="#00f" d="m851.68 672v-60h120v120h-120v-60zm48 49.35c6.93-1.42 16.74-8.04 20.86-14.1 2.55-3.74 2.48-6.11-0.36-12.91l-1.57-3.77-2.37 5.1c-3.16 6.83-9.08 13.19-14.38 15.47-5.31 2.27-13.91 2.41-18.96 0.31-14.26-5.95-18.91-24.71-9.21-37.16 1.45-1.87 1.57-3 0.72-7.25-0.54-2.78-1.35-5.04-1.78-5.04-1.61 0-8.28 8.68-10.75 14-3.43 7.38-3.66 19.2-0.49 26.17 4.41 9.74 14.64 17.69 25.34 19.7 4.21 0.78 7.18 0.67 12.95-0.52zm50.68-11.89c6.91-2.15 11.32-4.04 11.32-4.85 0-2.17-2.13-7.61-2.99-7.61-0.44 0-3.82 0.93-7.52 2.08-3.7 1.14-7.07 1.7-7.48 1.25-0.41-0.46-3.36-7.25-6.56-15.08l-5.82-14.25h-19.81c-11.37 0-19.82-0.39-19.82-0.92 0-0.51-0.27-1.63-0.6-2.5-0.54-1.4 1.18-1.58 15-1.58h15.6v-9h-15.94c-8.77 0-16.13-0.34-16.37-0.75-0.23-0.42-0.72-3.5-1.09-6.85l-0.66-6.09 3.28-0.93c7.17-2.02 8.87-13.23 2.83-18.63-4.99-4.46-12.6-3.14-16.54 2.88-1.73 2.63-1.71 3.21 0.43 16.8 1.22 7.74 2.97 19.02 3.9 25.07l1.69 11 20.84 0.5 20.84 0.5 6.5 16.25c3.57 8.93 6.76 16.25 7.07 16.25 0.32 0 5.67-1.59 11.9-3.54z"/>
    </g>
    <path id="path9191" fill-rule="evenodd" fill="#050" d="m605.41 149.8l-11.68 5.17 11.15 5.15s1.93 0.36 1.68-0.4c-0.3-0.89-1-2.66-1-2.66l20.18-0.05v-0.05c5.23-0.01 18.66-0.06 18.66-0.06s-1.06 1.74-1.04 2.56 1.12 0.73 1.12 0.73l11.67-5.17-11.15-5.13s-1.92-0.36-1.67 0.39c0.3 0.9 1 2.66 1 2.66l-20.2 0.05v0.06c-5.22 0-18.64 0.04-18.64 0.04s1.05-1.73 1.03-2.56c-0.02-0.82-1.11-0.73-1.11-0.73z"/>
    <path id="text9196" fill="#050" d="m614.43 52.676v-34.454h12.89c4.89 0 8.07 0.172 9.56 0.517 2.27 0.517 4.18 1.641 5.72 3.372 1.54 1.732 2.31 3.968 2.31 6.71 0 2.115-0.45 3.894-1.33 5.335-0.89 1.442-2.01 2.574-3.38 3.396-1.37 0.823-2.75 1.367-4.17 1.634-1.91 0.329-4.69 0.493-8.33 0.493h-5.23v12.997h-8.04zm8.04-28.626v9.777h4.39c3.17 0 5.29-0.18 6.35-0.54 1.07-0.361 1.91-0.925 2.51-1.693 0.61-0.767 0.91-1.66 0.91-2.679 0-1.253-0.42-2.287-1.27-3.102s-1.93-1.324-3.23-1.528c-0.96-0.157-2.89-0.235-5.78-0.235h-3.88z"/>
    <path id="text9200" fill="#050" d="m605.07 121.44c0-1.58 0.23-2.88 0.69-3.9 0.46-1.03 1.06-1.79 1.8-2.29s1.64-0.75 2.7-0.75c1.53 0 2.77 0.6 3.74 1.78 0.96 1.19 1.44 2.88 1.44 5.07 0 2.22-0.51 3.95-1.53 5.2-0.89 1.1-2.11 1.66-3.65 1.66s-2.76-0.55-3.66-1.64c-1.02-1.25-1.53-2.96-1.53-5.13zm2.22-0.09c0 1.52 0.29 2.66 0.86 3.43 0.57 0.76 1.27 1.14 2.11 1.14 0.85 0 1.56-0.38 2.11-1.14 0.56-0.75 0.84-1.91 0.84-3.48 0-1.54-0.27-2.67-0.81-3.41-0.55-0.73-1.26-1.1-2.14-1.1-0.87 0-1.59 0.37-2.14 1.11s-0.83 1.89-0.83 3.45zm9.87 6.63v-13.25h2.1l4.37 8.85v-8.85h2.01v13.25h-2.17l-4.3-8.64v8.64h-2.01zm10.81 0v-13.14h2.15v10.91h5.38v2.23h-7.53zm11.89 0v-5.58l-3.91-7.67h2.53l2.51 5.24 2.48-5.24h2.48l-3.93 7.69v5.56h-2.16z"/>
  </g>
  <metadata>
    <rdf:RDF>
      <cc:Work>
        <dc:format>image/svg+xml</dc:format>
        <dc:type rdf:resource="http://purl.org/dc/dcmitype/StillImage"/>
        <cc:license rdf:resource="http://creativecommons.org/licenses/publicdomain/"/>
        <dc:publisher>
          <cc:Agent rdf:about="http://openclipart.org/">
            <dc:title>Openclipart</dc:title>
          </cc:Agent>
        </dc:publisher>
        <dc:title>sign_disabled parking</dc:title>
        <dc:date>2007-10-20T00:12:27</dc:date>
        <dc:description>clip art, clipart, image, media, public domain, roadsign, roadsign, sign, sign, svg, </dc:description>
        <dc:source>http://openclipart.org/detail/7248/sign_disabled-parking-by-leomarc</dc:source>
        <dc:creator>
          <cc:Agent>
            <dc:title>Leomarc</dc:title>
          </cc:Agent>
        </dc:creator>
        <dc:subject>
          <rdf:Bag>
            <rdf:li>clip art</rdf:li>
            <rdf:li>clipart</rdf:li>
            <rdf:li>image</rdf:li>
            <rdf:li>media</rdf:li>
            <rdf:li>public domain</rdf:li>
            <rdf:li>roadsign</rdf:li>
            <rdf:li>sign</rdf:li>
            <rdf:li>svg</rdf:li>
          </rdf:Bag>
        </dc:subject>
      </cc:Work>
      <cc:License rdf:about="http://creativecommons.org/licenses/publicdomain/">
        <cc:permits rdf:resource="http://creativecommons.org/ns#Reproduction"/>
        <cc:permits rdf:resource="http://creativecommons.org/ns#Distribution"/>
        <cc:permits rdf:resource="http://creativecommons.org/ns#DerivativeWorks"/>
      </cc:License>
    </rdf:RDF>
  </metadata>
</svg>
