<?xml version="1.0"?>
<svg xmlns:rdf="http://www.w3.org/1999/02/22-rdf-syntax-ns#" xmlns="http://www.w3.org/2000/svg" xmlns:cc="http://web.resource.org/cc/" xmlns:dc="http://purl.org/dc/elements/1.1/" xmlns:svg="http://www.w3.org/2000/svg" id="svg14350" viewBox="0 0 87.636 120.48" version="1.0">
  <g id="layer1" transform="translate(-2765.7 2119.1)">
    <path id="rect4563" d="m2772.5-2118h74.1c3.1 0 5.7 2.5 5.7 5.6v107c0 3.2-2.6 5.7-5.7 5.7h-74.1c-3.2 0-5.7-2.5-5.7-5.7v-107c0-3.1 2.5-5.6 5.7-5.6z" stroke="#f00" stroke-width="2.2013" fill="none"/>
    <path id="text4565" d="m3959.6-1469.4v-16.5h3.2l6.8 11v-11h3.1v16.5h-3.4l-6.6-10.8v10.8h-3.1zm15.9-8.1c0-1.7 0.3-3.1 0.8-4.3 0.3-0.8 0.9-1.6 1.5-2.2 0.6-0.7 1.4-1.2 2.1-1.5 1.1-0.4 2.2-0.7 3.6-0.7 2.4 0 4.3 0.8 5.8 2.3s2.2 3.6 2.2 6.3c0 2.6-0.7 4.7-2.2 6.2-1.4 1.5-3.4 2.3-5.8 2.3s-4.4-0.8-5.8-2.3c-1.5-1.5-2.2-3.5-2.2-6.1zm3.4-0.2c0 1.9 0.5 3.3 1.3 4.3 0.9 0.9 2 1.4 3.3 1.4s2.4-0.4 3.3-1.4c0.8-1 1.3-2.4 1.3-4.3s-0.5-3.3-1.3-4.2c-0.8-1-1.9-1.4-3.3-1.4s-2.5 0.4-3.3 1.4c-0.8 0.9-1.3 2.3-1.3 4.2zm-55.2 29v-16.5h5.4c2 0 3.3 0.1 3.9 0.3 1 0.2 1.8 0.8 2.4 1.6s1 1.9 1 3.2c0 1-0.2 1.9-0.6 2.5-0.4 0.7-0.8 1.3-1.4 1.7s-1.1 0.6-1.7 0.8c-0.8 0.1-2 0.2-3.5 0.2h-2.1v6.2h-3.4zm3.4-13.7v4.7h1.8c1.3 0 2.2-0.1 2.6-0.3 0.5-0.1 0.8-0.4 1-0.8 0.3-0.3 0.4-0.8 0.4-1.3 0-0.6-0.2-1.1-0.5-1.4-0.4-0.4-0.8-0.7-1.3-0.8-0.4 0-1.2-0.1-2.4-0.1h-1.6zm26.9 13.7h-3.7l-1.4-3.7h-6.6l-1.3 3.7h-3.6l6.4-16.5h3.6l6.6 16.5zm-6.2-6.5l-2.2-6.1-2.3 6.1h4.5zm7.9 6.5v-16.5h7c1.8 0 3.1 0.2 3.9 0.5s1.4 0.8 1.9 1.6c0.5 0.7 0.7 1.6 0.7 2.5 0 1.3-0.3 2.3-1.1 3.1-0.7 0.8-1.8 1.3-3.2 1.5 0.7 0.5 1.3 0.9 1.8 1.4 0.4 0.5 1.1 1.4 1.8 2.7l2.1 3.2h-4l-2.4-3.6c-0.9-1.3-1.5-2.1-1.8-2.4s-0.6-0.6-1-0.7c-0.3-0.1-0.9-0.2-1.7-0.2h-0.6v6.9h-3.4zm3.4-9.5h2.4c1.6 0 2.6-0.1 3-0.2s0.7-0.4 1-0.7c0.2-0.3 0.3-0.7 0.3-1.2 0-0.6-0.2-1-0.5-1.4-0.2-0.3-0.7-0.5-1.2-0.6-0.3-0.1-1.1-0.1-2.4-0.1h-2.6v4.2zm13.3 9.5v-16.5h3.3v7.3l6.8-7.3h4.4l-6.2 6.4 6.6 10.1h-4.3l-4.6-7.7-2.7 2.7v5h-3.3zm16.5 0v-16.5h3.3v16.5h-3.3zm6.5 0v-16.5h3.2l6.8 11v-11h3.1v16.5h-3.4l-6.6-10.7v10.7h-3.1zm24.3-6.1v-2.7h7.1v6.5c-0.7 0.7-1.7 1.3-3 1.8s-2.6 0.8-4 0.8c-1.7 0-3.2-0.4-4.5-1.1s-2.3-1.8-2.9-3.1-1-2.8-1-4.4c0-1.7 0.4-3.2 1.1-4.6 0.7-1.3 1.8-2.3 3.2-3 1-0.6 2.3-0.9 3.9-0.9 2.1 0 3.7 0.5 4.8 1.3 1.2 0.9 1.9 2.1 2.2 3.6l-3.3 0.6c-0.2-0.8-0.6-1.4-1.3-1.9-0.6-0.5-1.4-0.7-2.4-0.7-1.4 0-2.6 0.5-3.4 1.4-0.9 0.9-1.3 2.3-1.3 4.1 0 1.9 0.4 3.4 1.3 4.4 0.8 1 2 1.4 3.4 1.4 0.7 0 1.4-0.1 2.1-0.4 0.7-0.2 1.3-0.6 1.8-1v-2.1h-3.8z" fill="#f00" transform="scale(.70662 1.4152)"/>
    <path id="path6517" fill-rule="evenodd" fill="#f00" d="m2786.5-2030.2l-13.5 5.2 12.9 5.1s2.2 0.4 1.9-0.4c-0.3-0.9-1.1-2.6-1.1-2.6l23.3-0.1c6 0 21.5-0.1 21.5-0.1s-1.3 1.8-1.2 2.6c0 0.8 1.3 0.7 1.3 0.7l13.4-5.2-12.8-5.1s-2.3-0.3-2 0.4l1.2 2.7h-23.3v0.1h-21.5s1.2-1.7 1.2-2.5c0-0.9-1.3-0.8-1.3-0.8z"/>
  </g>
  <metadata>
    <rdf:RDF>
      <cc:Work>
        <dc:format>image/svg+xml</dc:format>
        <dc:type rdf:resource="http://purl.org/dc/dcmitype/StillImage"/>
        <cc:license rdf:resource="http://creativecommons.org/licenses/publicdomain/"/>
        <dc:publisher>
          <cc:Agent rdf:about="http://openclipart.org/">
            <dc:title>Openclipart</dc:title>
          </cc:Agent>
        </dc:publisher>
        <dc:title>sign_no parking</dc:title>
        <dc:date>2007-10-20T00:26:14</dc:date>
        <dc:description>clip art, clipart, image, media, public domain, roadsign, roadsign, sign, sign, svg, </dc:description>
        <dc:source>http://openclipart.org/detail/7262/sign_no-parking-by-leomarc</dc:source>
        <dc:creator>
          <cc:Agent>
            <dc:title>Leomarc</dc:title>
          </cc:Agent>
        </dc:creator>
        <dc:subject>
          <rdf:Bag>
            <rdf:li>clip art</rdf:li>
            <rdf:li>clipart</rdf:li>
            <rdf:li>image</rdf:li>
            <rdf:li>media</rdf:li>
            <rdf:li>public domain</rdf:li>
            <rdf:li>roadsign</rdf:li>
            <rdf:li>sign</rdf:li>
            <rdf:li>svg</rdf:li>
          </rdf:Bag>
        </dc:subject>
      </cc:Work>
      <cc:License rdf:about="http://creativecommons.org/licenses/publicdomain/">
        <cc:permits rdf:resource="http://creativecommons.org/ns#Reproduction"/>
        <cc:permits rdf:resource="http://creativecommons.org/ns#Distribution"/>
        <cc:permits rdf:resource="http://creativecommons.org/ns#DerivativeWorks"/>
      </cc:License>
    </rdf:RDF>
  </metadata>
</svg>
