<?xml version="1.0" encoding="iso-8859-1"?>
<!-- Generator: Adobe Illustrator 18.0.0, SVG Export Plug-In . SVG Version: 6.00 Build 0)  -->
<!DOCTYPE svg PUBLIC "-//W3C//DTD SVG 1.1//EN" "http://www.w3.org/Graphics/SVG/1.1/DTD/svg11.dtd">
<svg version="1.1" id="Capa_1" xmlns="http://www.w3.org/2000/svg" xmlns:xlink="http://www.w3.org/1999/xlink" x="0px" y="0px"
	 viewBox="0 0 194.861 194.861" style="enable-background:new 0 0 194.861 194.861;" xml:space="preserve">
<path d="M168.988,49.548L121.633,2.196c-2.929-2.929-7.677-2.928-10.607,0c-2.929,2.929-2.928,7.678,0.001,10.607l34.55,34.548
	H65.172c-22.88,0-41.495,18.615-41.495,41.496v98.514c0,4.142,3.358,7.5,7.5,7.5s7.5-3.358,7.5-7.5V88.848
	c0-14.61,11.886-26.496,26.495-26.496h80.405l-34.748,34.743c-2.929,2.929-2.93,7.678-0.001,10.606
	c1.465,1.465,3.384,2.197,5.304,2.197c1.919,0,3.838-0.732,5.303-2.196l47.553-47.547c1.407-1.407,2.197-3.314,2.197-5.304
	C171.185,52.862,170.395,50.955,168.988,49.548z"/>
<g>
</g>
<g>
</g>
<g>
</g>
<g>
</g>
<g>
</g>
<g>
</g>
<g>
</g>
<g>
</g>
<g>
</g>
<g>
</g>
<g>
</g>
<g>
</g>
<g>
</g>
<g>
</g>
<g>
</g>
</svg>
